<?xml version="1.0" encoding="UTF-8" standalone="no"?>
<!-- Created with Inkscape (http://www.inkscape.org/) -->

<svg
   width="85.8097mm"
   height="90.51297mm"
   viewBox="0 0 85.8097 90.51297"
   version="1.1"
   id="svg1"
   xml:space="preserve"
   inkscape:export-filename="annotask-logo.svg"
   inkscape:export-xdpi="96"
   inkscape:export-ydpi="96"
   xmlns:inkscape="http://www.inkscape.org/namespaces/inkscape"
   xmlns:sodipodi="http://sodipodi.sourceforge.net/DTD/sodipodi-0.dtd"
   xmlns="http://www.w3.org/2000/svg"
   xmlns:svg="http://www.w3.org/2000/svg"><sodipodi:namedview
     id="namedview1"
     pagecolor="#ffffff"
     bordercolor="#000000"
     borderopacity="0.25"
     inkscape:showpageshadow="2"
     inkscape:pageopacity="0.0"
     inkscape:pagecheckerboard="0"
     inkscape:deskcolor="#d1d1d1"
     inkscape:document-units="mm" /><defs
     id="defs1" /><g
     inkscape:label="Layer 1"
     inkscape:groupmode="layer"
     id="layer1"
     transform="translate(-62.899328,-101.94142)"><path
       style="fill:#a855f7"
       d="m 134.91736,192.25492 c -0.17407,-0.10629 -0.4289,-0.47585 -0.56629,-0.82125 -0.36972,-0.92949 -1.97193,-3.46199 -2.73919,-4.32964 -0.65708,-0.74306 -0.76815,-0.78945 -5.9909,-2.50224 -2.92678,-0.95983 -5.5217,-1.85203 -5.76651,-1.98268 -0.46847,-0.25001 -0.34705,0.008 -4.70062,-9.99454 -1.10068,-2.5289 -2.11469,-4.71972 -2.25336,-4.86848 -0.22028,-0.2363 -1.69906,-0.26275 -11.70412,-0.20939 -6.29859,0.0336 -11.508811,0.11762 -11.578267,0.18674 -0.110444,0.10991 -2.057664,4.97834 -4.336258,10.8415 -0.404685,1.04131 -1.214075,3.11042 -1.798643,4.59801 -0.584569,1.48759 -1.519045,3.88126 -2.076613,5.31927 -0.639399,1.64905 -1.176475,2.76437 -1.454389,3.02026 l -0.440629,0.40571 H 71.20545 62.899328 l 0.485955,-1.21712 c 4.924926,-12.33496 8.68984,-21.77908 9.542404,-23.93671 1.222027,-3.09264 4.334384,-10.88822 6.515072,-16.31843 0.816439,-2.03304 1.717554,-4.305 2.002478,-5.0488 0.284925,-0.74379 1.173406,-2.97518 1.974403,-4.95864 2.26179,-5.60071 3.002934,-7.4502 4.696714,-11.72042 2.323025,-5.85661 5.175288,-13.0006 7.631058,-19.1133 1.195277,-2.97518 2.2933,-5.73399 2.440052,-6.13068 0.146751,-0.39669 0.454985,-0.90383 0.684963,-1.12696 l 0.418142,-0.40571 h 8.218851 c 4.5675,0 8.40278,0.0735 8.63285,0.16534 0.48798,0.19488 0.21967,-0.3832 3.81486,8.21927 1.57498,3.76856 3.0009,7.1765 3.16872,7.57319 0.72751,1.71971 6.0043,14.3125 7.21573,17.22001 1.70973,4.10343 5.72679,13.69793 6.00479,14.34207 0.17288,0.40059 0.6624,1.57714 1.08781,2.61455 0.4254,1.03742 1.62997,3.94236 2.67682,6.45544 1.04684,2.51307 1.90335,4.63435 1.90335,4.71395 0,0.0796 -0.13518,0.20017 -0.3004,0.26793 -0.16522,0.0678 -2.88815,1.13252 -6.05096,2.36612 -3.1628,1.23361 -6.38915,2.49725 -7.16965,2.8081 -0.78051,0.31085 -1.46721,0.51465 -1.52601,0.45289 -0.0588,-0.0618 -0.47187,-1.06788 -0.91794,-2.23583 -1.23675,-3.23817 -5.95661,-15.50366 -7.7211,-20.0648 -0.86321,-2.23139 -2.44519,-6.32903 -3.5155,-9.10587 -1.07032,-2.77684 -2.93161,-7.60475 -4.13621,-10.72869 -1.2046,-3.12394 -2.40407,-6.24789 -2.66548,-6.9421 l -0.4753,-1.2622 -0.19301,0.54095 c -0.41622,1.16649 -1.34994,3.63968 -3.23358,8.56492 -1.08095,2.82642 -2.45236,6.43721 -3.04756,8.02398 -0.5952,1.58676 -2.239286,5.88726 -3.653514,9.55665 l -2.571325,6.67162 8.579019,0.0468 8.57903,0.0468 0.31226,0.76466 c 0.17174,0.42056 1.14288,2.91491 2.15809,5.54299 6.49171,16.80514 6.66474,17.23698 6.88434,17.18212 0.0834,-0.0208 1.07858,-0.41426 2.21153,-0.87427 1.13294,-0.46001 3.45033,-1.38768 5.14975,-2.0615 5.11823,-2.02936 14.4013,-5.72634 14.68171,-5.84697 0.14433,-0.0621 0.39342,-0.01 0.55354,0.11648 0.32234,0.25397 2.18807,4.67673 2.18807,5.18689 0,0.17699 -0.13518,0.48424 -0.3004,0.68278 -0.26519,0.31867 -5.46287,2.61313 -10.94322,4.83077 -4.74484,1.92001 -6.57881,2.65419 -7.29162,2.91899 l -0.76861,0.28552 1.94355,0.34154 1.94355,0.34153 0.76851,-0.37946 c 1.60709,-0.79351 3.36191,-1.44818 7.26693,-2.71108 2.21869,-0.71753 4.10331,-1.315 4.18806,-1.32771 0.15755,-0.0236 0.93522,1.74858 2.24488,5.11584 0.40501,1.04131 1.36343,3.49407 2.12982,5.45058 0.76638,1.9565 1.39343,3.70509 1.39343,3.88577 0,0.74599 -0.14218,0.76147 -6.94358,0.75576 -4.32521,-0.004 -6.63851,-0.0708 -6.84809,-0.19873 z"
       id="path1"
       inkscape:export-filename=".\path1.svg"
       inkscape:export-xdpi="93.780724"
       inkscape:export-ydpi="93.780724" /></g></svg>
